<?xml version="1.0" encoding="utf-8"?>
<svg viewBox="0 0 500 500" xmlns="http://www.w3.org/2000/svg">
  <path d="M 136.934 397.359 C 118.088 397.359 102.782 382.044 102.782 363.218 C 102.782 344.385 118.088 329.076 136.934 329.076 C 146.309 329.076 154.874 332.904 161.058 339.094 L 178.778 321.373 C 168.059 310.625 153.251 303.99 136.934 303.99 C 104.27 303.99 77.694 330.567 77.694 363.218 C 77.694 395.893 104.27 422.439 136.934 422.439 C 153.251 422.439 168.059 415.798 178.778 405.084 L 161.058 387.363 C 154.874 393.544 146.309 397.359 136.934 397.359" style="fill: rgb(131, 98, 172);"/>
  <path d="M 50.171 455.089 L 234.234 455.089 L 234.234 271.026 L 50.171 271.026 L 50.171 455.089 Z M 70.78 434.502 L 70.78 291.635 L 213.669 291.635 L 213.669 357.883 L 213.669 368.245 L 213.669 434.505 L 70.78 434.505 Z" style="fill: rgb(131, 98, 172);"/>
  <path id="Oval" class="st1" d="M 185.373 385.146 C 196.659 385.146 205.12 376.121 205.12 364.834 C 205.12 353.55 196.659 345.086 185.373 345.086 C 174.086 345.086 165.625 354.114 165.625 364.834 C 165.625 375.557 174.65 385.146 185.373 385.146 Z" style="fill: rgb(131, 98, 172);"/>
  <path id="Path_6_" class="st2" d="M 332.912 454.316 L 283.828 454.316 L 283.828 273.488 L 374.243 273.488 C 423.324 273.488 464.655 314.823 464.655 363.904 C 464.655 412.985 423.324 454.316 374.243 454.316 L 332.912 454.316 Z" style="fill: rgb(50, 169, 128);"/>
  <path id="Path_7_" class="st3" d="M 332.912 221.826 L 283.828 221.826 L 283.828 40.999 L 374.243 40.999 C 423.324 40.999 464.655 82.33 464.655 131.411 C 464.655 180.492 423.324 221.826 374.243 221.826 L 332.912 221.826 Z" style="fill: rgb(237, 169, 30);"/>
  <path id="path-1" class="st1" d="M 142.702 224.174 C 194.128 224.174 232.68 183.051 232.68 131.621 C 232.68 80.205 194.128 41.638 142.702 41.638 C 91.272 41.638 52.719 82.774 52.719 131.621 C 52.719 180.481 93.841 224.174 142.702 224.174 Z" style="fill: rgb(234, 70, 34);"/>
</svg>